// Stereo acoustic guitar

<group>
lovel=1 hivel=25
ampeg_decay=30
ampeg_release=0.3
ampeg_sustain=0.1

<region>
lokey=0 hikey=40
sample=2_E_b.wav
pitch_keycenter=40

<region>
lokey=41 hikey=41
sample=2_F_b.wav
pitch_keycenter=41

<region>
lokey=42 hikey=43
sample=2_G_b.wav
pitch_keycenter=43

<region>
lokey=44 hikey=45
sample=2_A_b.wav
pitch_keycenter=45

<region>
lokey=46 hikey=46
sample=2_Bb_b.wav
pitch_keycenter=46

<region>
lokey=47 hikey=48
sample=3_C_b.wav
pitch_keycenter=48

<region>
lokey=49 hikey=50
sample=3_D_b.wav
pitch_keycenter=50

<region>
lokey=51 hikey=51
sample=3_Eb_b.wav
pitch_keycenter=51

<region>
lokey=52 hikey=53
sample=3_F_b.wav
pitch_keycenter=53

<region>
lokey=54 hikey=55
sample=3_G_b.wav
pitch_keycenter=55

<region>
lokey=56 hikey=56
sample=3_Ab_b.wav
pitch_keycenter=56

<region>
lokey=57 hikey=58
sample=3_Bb_b.wav
pitch_keycenter=58

<region>
lokey=59 hikey=59
sample=3_B_b.wav
pitch_keycenter=59

<region>
lokey=60 hikey=60
sample=4_C_b.wav
pitch_keycenter=60

<region>
lokey=61 hikey=62
sample=4_D_b.wav
pitch_keycenter=62

<region>
lokey=63 hikey=64
sample=4_E_b.wav
pitch_keycenter=64

<region>
lokey=65 hikey=65
sample=4_F_b.wav
pitch_keycenter=65

<region>
lokey=66 hikey=67
sample=4_G_b.wav
pitch_keycenter=67

<region>
lokey=68 hikey=69
sample=4_A_b.wav
pitch_keycenter=69

<region>
lokey=70 hikey=71
sample=4_B_b.wav
pitch_keycenter=71

<region>
lokey=72 hikey=72
sample=5_C_b.wav
pitch_keycenter=72

<region>
lokey=73 hikey=74
sample=5_D_b.wav
pitch_keycenter=74

<region>
lokey=75 hikey=76
sample=5_E_b.wav
pitch_keycenter=76

<region>
lokey=77 hikey=78
sample=5_Gb_b.wav
pitch_keycenter=78

<region>
lokey=79 hikey=80
sample=5_Ab_b.wav
pitch_keycenter=80

<region>
lokey=81 hikey=127
sample=5_Bb_b.wav
pitch_keycenter=82

// =================

<group>
lovel=26 hivel=50
ampeg_decay=30
ampeg_release=0.3
ampeg_sustain=0.1

<region>
lokey=0 hikey=40
sample=2_E_a.wav
pitch_keycenter=40

<region>
lokey=41 hikey=41
sample=2_F_a.wav
pitch_keycenter=41

<region>
lokey=42 hikey=43
sample=2_G_a.wav
pitch_keycenter=43

<region>
lokey=44 hikey=45
sample=2_A_a.wav
pitch_keycenter=45

<region>
lokey=46 hikey=46
sample=2_Bb_a.wav
pitch_keycenter=46

<region>
lokey=47 hikey=48
sample=3_C_a.wav
pitch_keycenter=48

<region>
lokey=49 hikey=50
sample=3_D_a.wav
pitch_keycenter=50

<region>
lokey=51 hikey=51
sample=3_Eb_a.wav
pitch_keycenter=51

<region>
lokey=52 hikey=53
sample=3_F_a.wav
pitch_keycenter=53

<region>
lokey=54 hikey=55
sample=3_G_a.wav
pitch_keycenter=55

<region>
lokey=56 hikey=56
sample=3_Ab_a.wav
pitch_keycenter=56

<region>
lokey=57 hikey=58
sample=3_Bb_a.wav
pitch_keycenter=58

<region>
lokey=59 hikey=59
sample=3_B_a.wav
pitch_keycenter=59

<region>
lokey=60 hikey=60
sample=4_C_a.wav
pitch_keycenter=60

<region>
lokey=61 hikey=62
sample=4_D_a.wav
pitch_keycenter=62

<region>
lokey=63 hikey=64
sample=4_E_a.wav
pitch_keycenter=64

<region>
lokey=65 hikey=65
sample=4_F_a.wav
pitch_keycenter=65

<region>
lokey=66 hikey=67
sample=4_G_a.wav
pitch_keycenter=67

<region>
lokey=68 hikey=69
sample=4_A_a.wav
pitch_keycenter=69

<region>
lokey=70 hikey=71
sample=4_B_a.wav
pitch_keycenter=71

<region>
lokey=72 hikey=72
sample=5_C_a.wav
pitch_keycenter=72

<region>
lokey=73 hikey=74
sample=5_D_a.wav
pitch_keycenter=74

<region>
lokey=75 hikey=76
sample=5_E_a.wav
pitch_keycenter=76

<region>
lokey=77 hikey=78
sample=5_Gb_a.wav
pitch_keycenter=78

<region>
lokey=79 hikey=80
sample=5_Ab_a.wav
pitch_keycenter=80

<region>
lokey=81 hikey=127
sample=5_Bb_a.wav
pitch_keycenter=82

// =================

<group>
lovel=51 hivel=75
ampeg_decay=30
ampeg_release=0.3
ampeg_sustain=0.1

<region>
lokey=0 hikey=40
sample=2_E_c.wav
pitch_keycenter=40

<region>
lokey=41 hikey=41
sample=2_F_c.wav
pitch_keycenter=41

<region>
lokey=42 hikey=43
sample=2_G_c.wav
pitch_keycenter=43

<region>
lokey=44 hikey=45
sample=2_A_c.wav
pitch_keycenter=45

<region>
lokey=46 hikey=46
sample=2_Bb_c.wav
pitch_keycenter=46

<region>
lokey=47 hikey=48
sample=3_C_c.wav
pitch_keycenter=48

<region>
lokey=49 hikey=50
sample=3_D_c.wav
pitch_keycenter=50

<region>
lokey=51 hikey=51
sample=3_Eb_c.wav
pitch_keycenter=51

<region>
lokey=52 hikey=53
sample=3_F_c.wav
pitch_keycenter=53

<region>
lokey=54 hikey=55
sample=3_G_c.wav
pitch_keycenter=55

<region>
lokey=56 hikey=56
sample=3_Ab_c.wav
pitch_keycenter=56

<region>
lokey=57 hikey=58
sample=3_Bb_c.wav
pitch_keycenter=58

<region>
lokey=59 hikey=59
sample=3_B_c.wav
pitch_keycenter=59

<region>
lokey=60 hikey=60
sample=4_C_c.wav
pitch_keycenter=60

<region>
lokey=61 hikey=62
sample=4_D_c.wav
pitch_keycenter=62

<region>
lokey=63 hikey=64
sample=4_E_c.wav
pitch_keycenter=64

<region>
lokey=65 hikey=65
sample=4_F_c.wav
pitch_keycenter=65

<region>
lokey=66 hikey=67
sample=4_G_c.wav
pitch_keycenter=67

<region>
lokey=68 hikey=69
sample=4_A_c.wav
pitch_keycenter=69

<region>
lokey=70 hikey=71
sample=4_B_c.wav
pitch_keycenter=71

<region>
lokey=72 hikey=72
sample=5_C_c.wav
pitch_keycenter=72

<region>
lokey=73 hikey=74
sample=5_D_c.wav
pitch_keycenter=74

<region>
lokey=75 hikey=76
sample=5_E_c.wav
pitch_keycenter=76

<region>
lokey=77 hikey=78
sample=5_Gb_c.wav
pitch_keycenter=78

<region>
lokey=79 hikey=80
sample=5_Ab_c.wav
pitch_keycenter=80

<region>
lokey=81 hikey=127
sample=5_Bb_c.wav
pitch_keycenter=82

// =================

<group>
lovel=76 hivel=105
ampeg_decay=30
ampeg_release=0.3
ampeg_sustain=0.1

<region>
lokey=0 hikey=40
sample=2_E_d.wav
pitch_keycenter=40

<region>
lokey=41 hikey=41
sample=2_F_d.wav
pitch_keycenter=41

<region>
lokey=42 hikey=43
sample=2_G_d.wav
pitch_keycenter=43

<region>
lokey=44 hikey=45
sample=2_A_d.wav
pitch_keycenter=45

<region>
lokey=46 hikey=46
sample=2_Bb_d.wav
pitch_keycenter=46

<region>
lokey=47 hikey=48
sample=3_C_d.wav
pitch_keycenter=48

<region>
lokey=49 hikey=50
sample=3_D_d.wav
pitch_keycenter=50

<region>
lokey=51 hikey=51
sample=3_Eb_d.wav
pitch_keycenter=51

<region>
lokey=52 hikey=53
sample=3_F_d.wav
pitch_keycenter=53

<region>
lokey=54 hikey=55
sample=3_G_d.wav
pitch_keycenter=55

<region>
lokey=56 hikey=56
sample=3_Ab_d.wav
pitch_keycenter=56

<region>
lokey=57 hikey=58
sample=3_Bb_d.wav
pitch_keycenter=58

<region>
lokey=59 hikey=59
sample=3_B_d.wav
pitch_keycenter=59

<region>
lokey=60 hikey=60
sample=4_C_d.wav
pitch_keycenter=60

<region>
lokey=61 hikey=62
sample=4_D_d.wav
pitch_keycenter=62

<region>
lokey=63 hikey=64
sample=4_E_d.wav
pitch_keycenter=64

<region>
lokey=65 hikey=65
sample=4_F_d.wav
pitch_keycenter=65

<region>
lokey=66 hikey=67
sample=4_G_d.wav
pitch_keycenter=67

<region>
lokey=68 hikey=69
sample=4_A_d.wav
pitch_keycenter=69

<region>
lokey=70 hikey=71
sample=4_B_d.wav
pitch_keycenter=71

<region>
lokey=72 hikey=72
sample=5_C_d.wav
pitch_keycenter=72

<region>
lokey=73 hikey=74
sample=5_D_d.wav
pitch_keycenter=74

<region>
lokey=75 hikey=76
sample=5_E_d.wav
pitch_keycenter=76

<region>
lokey=77 hikey=78
sample=5_Gb_d.wav
pitch_keycenter=78

<region>
lokey=79 hikey=80
sample=5_Ab_d.wav
pitch_keycenter=80

<region>
lokey=81 hikey=127
sample=5_Bb_d.wav
pitch_keycenter=82

// =================

<group>
lovel=106 hivel=127
ampeg_decay=30
ampeg_release=0.3
ampeg_sustain=0.1

<region>
lokey=0 hikey=40
sample=2_E_e.wav
pitch_keycenter=40

<region>
lokey=41 hikey=41
sample=2_F_e.wav
pitch_keycenter=41

<region>
lokey=42 hikey=43
sample=2_G_e.wav
pitch_keycenter=43

<region>
lokey=44 hikey=45
sample=2_A_e.wav
pitch_keycenter=45

<region>
lokey=46 hikey=46
sample=2_Bb_e.wav
pitch_keycenter=46

<region>
lokey=47 hikey=48
sample=3_C_e.wav
pitch_keycenter=48

<region>
lokey=49 hikey=50
sample=3_D_e.wav
pitch_keycenter=50

<region>
lokey=51 hikey=51
sample=3_Eb_e.wav
pitch_keycenter=51

<region>
lokey=52 hikey=53
sample=3_F_e.wav
pitch_keycenter=53

<region>
lokey=54 hikey=55
sample=3_G_e.wav
pitch_keycenter=55

<region>
lokey=56 hikey=56
sample=3_Ab_e.wav
pitch_keycenter=56

<region>
lokey=57 hikey=58
sample=3_Bb_e.wav
pitch_keycenter=58

<region>
lokey=59 hikey=60
sample=3_B_e.wav
pitch_keycenter=59

<region>
lokey=61 hikey=62
sample=4_D_e.wav
pitch_keycenter=62

<region>
lokey=63 hikey=66
sample=4_E_e.wav
pitch_keycenter=64

<region>
lokey=67 hikey=69
sample=4_A_e.wav
pitch_keycenter=69

<region>
lokey=70 hikey=71
sample=4_B_e.wav
pitch_keycenter=71

<region>
lokey=72 hikey=72
sample=5_C_e.wav
pitch_keycenter=72

<region>
lokey=73 hikey=74
sample=5_D_e.wav
pitch_keycenter=74

<region>
lokey=75 hikey=76
sample=5_E_e.wav
pitch_keycenter=76

<region>
lokey=77 hikey=78
sample=5_Gb_e.wav
pitch_keycenter=78

<region>
lokey=79 hikey=80
sample=5_Ab_e.wav
pitch_keycenter=80

<region>
lokey=81 hikey=127
sample=5_Bb_e.wav
pitch_keycenter=82

<group>
trigger=release
lorand=0 hirand=0.2
loop_mode=one_shot
seq_length=5
pitch_keytrack=0
volume=-26
<region>
sample=noise1.wav
<region>
sample=noise2.wav seq_position=2
<region>
sample=noise3.wav seq_position=3
<region>
sample=noise4.wav seq_position=4
<region>
sample=noise5.wav seq_position=5
